<svg width="223" height="66" viewBox="0 0 223 66" fill="none" xmlns="http://www.w3.org/2000/svg">
<path d="M28 33.4999C29.6 8.29993 10.3333 1.66661 0.5 1.49994C60.0023 2.00313 162.678 1.23829 203.887 1.00169C207.41 0.775289 210.959 0.865218 214.3 0.948357C220.568 0.922941 223.198 0.933326 221 0.999943C218.928 1.06274 216.666 1.00725 214.3 0.948357C211.513 0.959656 208.007 0.978032 203.887 1.00169C190.035 1.89202 176.606 7.67439 178 38C179.111 62.1612 160.833 65.1666 151.5 65C125.333 64.3333 71.4834 64.5183 64.5 65C50 66 26 64.9999 28 33.4999Z" fill="white"/>
<path d="M0.5 1.49994C10.3333 1.66661 29.6 8.29993 28 33.4999C26 64.9999 50 66 64.5 65C71.4834 64.5183 125.333 64.3333 151.5 65C160.833 65.1666 179.111 62.1612 178 38C176 -5.50001 204.5 1.5 221 0.999943C233.949 0.607493 79.3333 2.16661 0.5 1.49994Z" stroke="white"/>
</svg>
