<?xml version="1.0" standalone="no"?>
<!DOCTYPE svg PUBLIC "-//W3C//DTD SVG 1.1//EN" "http://www.w3.org/Graphics/SVG/1.1/DTD/svg11.dtd" >
<svg xmlns="http://www.w3.org/2000/svg">
<metadata>Generated by IcoMoon</metadata>
<defs>
<font id="icomoon" horiz-adv-x="1024">
<font-face units-per-em="1024" ascent="960" descent="-64" />
<missing-glyph horiz-adv-x="1024" />
<glyph unicode="&#x20;" horiz-adv-x="512" d="" />
<glyph unicode="&#xe900;" glyph-name="youtube" d="M410.75 603.713c9.901 5.716 22.099 5.716 32.002 0l221.696-128c9.899-5.717 16-16.282 16-27.712s-6.101-21.995-16-27.712l-221.696-128c-9.903-5.717-22.101-5.717-32.002 0s-16 16.277-16 27.712v256c0 11.433 6.099 21.997 16 27.713zM458.752 520.572v-145.143l125.696 72.572-125.696 72.572zM320 800c-88.354 0-160-71.646-160-160v-384.171c0-88.269 71.561-159.829 159.829-159.829h384.341c88.273 0 159.829 71.565 159.829 159.787v384.384c0 88.268-71.561 159.829-159.829 159.829h-384.171zM320 864h384.171c123.614 0 223.829-100.215 223.829-223.829v-384.384c0-123.575-100.22-223.787-223.829-223.787h-384.341c-123.614 0-223.829 100.215-223.829 223.829v384.171c0 123.7 100.3 224 224 224z" />
<glyph unicode="&#xe901;" glyph-name="facebook" d="M320 800c-88.354 0-160-71.646-160-160v-384.171c0-88.269 71.561-159.829 159.829-159.829h384.341c88.273 0 159.829 71.565 159.829 159.787v384.384c0 88.268-71.561 159.829-159.829 159.829h-384.171zM320 864h384.171c123.614 0 223.829-100.215 223.829-223.829v-384.384c0-123.575-100.22-223.787-223.829-223.787h-384.341c-123.614 0-223.829 100.215-223.829 223.829v384.171c0 123.7 100.3 224 224 224zM441.6 409.6c0 17.673 14.327 32 32 32h230.4c17.673 0 32-14.327 32-32s-14.327-32-32-32h-230.4c-17.673 0-32 14.327-32 32zM518.4 488.32c0 80.223 65.058 145.28 145.28 145.28h40.32c17.673 0 32-14.327 32-32s-14.327-32-32-32h-40.32c-44.877 0-81.28-36.404-81.28-81.28v-424.32c0-17.673-14.327-32-32-32s-32 14.327-32 32v424.32z" />
<glyph unicode="&#xe902;" glyph-name="user" d="M149.333 138.667c0 111.932 90.737 202.667 202.667 202.667h320c111.932 0 202.667-90.735 202.667-202.667v-32c0-11.78-9.553-21.333-21.333-21.333s-21.333 9.553-21.333 21.333v32c0 88.367-71.633 160-160 160h-320c-88.366 0-160-71.633-160-160v-32c0-11.78-9.551-21.333-21.333-21.333s-21.333 9.553-21.333 21.333v32zM512 810.667c-82.475 0-149.333-66.859-149.333-149.333s66.859-149.333 149.333-149.333c82.475 0 149.333 66.859 149.333 149.333s-66.859 149.333-149.333 149.333zM320 661.333c0 106.039 85.961 192 192 192s192-85.961 192-192c0-106.039-85.961-192-192-192s-192 85.961-192 192z" />
<glyph unicode="&#xe903;" glyph-name="pause" d="M298.667 640v-384c0-23.548 19.121-42.667 42.667-42.667s42.667 19.119 42.667 42.667v384c0 23.546-19.121 42.667-42.667 42.667s-42.667-19.121-42.667-42.667zM256 640c0 47.11 38.223 85.333 85.333 85.333s85.333-38.223 85.333-85.333v-384c0-47.108-38.223-85.333-85.333-85.333s-85.333 38.225-85.333 85.333v384zM640 640v-384c0-23.548 19.119-42.667 42.667-42.667s42.667 19.119 42.667 42.667v384c0 23.546-19.119 42.667-42.667 42.667s-42.667-19.121-42.667-42.667zM597.333 640c0 47.11 38.225 85.333 85.333 85.333s85.333-38.223 85.333-85.333v-384c0-47.108-38.225-85.333-85.333-85.333s-85.333 38.225-85.333 85.333v384z" />
<glyph unicode="&#xe904;" glyph-name="coffe" d="M249.967 890.334c-6.787-9.048-4.952-21.886 4.096-28.672 7.741-5.806 12.297-14.917 12.297-24.593s-4.556-18.787-12.297-24.593c-18.055-13.541-28.681-34.793-28.681-57.361s10.626-43.82 28.681-57.361c9.048-6.786 21.885-4.952 28.672 4.096s4.952 21.886-4.096 28.672c-7.741 5.806-12.297 14.917-12.297 24.593s4.556 18.788 12.297 24.593c18.055 13.541 28.681 34.792 28.681 57.361s-10.626 43.82-28.681 57.361c-9.048 6.786-21.886 4.952-28.672-4.096zM393.387 890.334c-6.787-9.048-4.953-21.886 4.096-28.672 7.741-5.806 12.297-14.917 12.297-24.593s-4.557-18.787-12.297-24.593c-18.055-13.541-28.681-34.793-28.681-57.361s10.626-43.82 28.681-57.361c9.048-6.786 21.886-4.952 28.673 4.096s4.952 21.886-4.096 28.672c-7.741 5.806-12.296 14.917-12.296 24.593s4.555 18.788 12.296 24.593c18.055 13.541 28.68 34.792 28.68 57.361s-10.625 43.82-28.68 57.361c-9.048 6.786-21.887 4.952-28.673-4.096zM536.805 890.334c-6.787-9.048-4.952-21.886 4.096-28.672 7.741-5.806 12.296-14.917 12.296-24.593s-4.555-18.787-12.296-24.593c-18.055-13.541-28.68-34.793-28.68-57.361s10.625-43.82 28.68-57.361c9.048-6.786 21.885-4.952 28.672 4.096s4.952 21.886-4.096 28.672c-7.741 5.806-12.296 14.917-12.296 24.593s4.555 18.788 12.296 24.593c18.055 13.541 28.68 34.792 28.68 57.361s-10.625 43.82-28.68 57.361c-9.048 6.786-21.885 4.952-28.672-4.096zM163.908 570.726h491.726c11.317 0 20.496-9.177 20.496-20.498v-204.882c0-10.58-0.729-20.988-2.138-31.179-0.934-2.515-1.38-5.231-1.257-8.008-18.547-105.796-110.879-186.196-221.987-186.196h-81.955c-124.475 0-225.382 100.905-225.382 225.382v204.882c0 11.322 9.177 20.498 20.497 20.498zM163.908 611.686c-33.942 0-61.457-27.515-61.457-61.458v-204.882c0-147.1 119.246-266.342 266.342-266.342h81.955c128.193 0 235.233 90.563 260.628 211.202l29.696 6.795c81.871 18.735 139.928 91.574 139.928 175.563 0 36.897-14.66 72.282-40.751 98.374s-61.477 40.748-98.374 40.748h-577.967zM713.589 570.726h28.287c26.034 0 51.003-10.342 69.411-28.752 18.412-18.407 28.754-43.377 28.754-69.411 0-64.889-44.851-121.16-108.106-135.635l-15.106-3.457c0.176 3.936 0.262 7.893 0.262 11.874v204.882c0 7.189-1.233 14.088-3.502 20.498z" />
<glyph unicode="&#xe905;" glyph-name="wallet" d="M225.374 816.162c-67.888 0-122.923-55.035-122.923-122.923v-491.724c0-67.887 55.034-122.925 122.923-122.925h532.702c67.887 0 122.925 55.038 122.925 122.925v389.281c0 56.573-45.863 102.434-102.437 102.434h-61.473v20.497c0 56.573-45.863 102.434-102.433 102.434h-389.284zM143.411 201.515v450.756h635.152c33.952 0 61.477-27.523 61.477-61.474v-389.281c0-45.269-36.696-81.965-81.965-81.965h-532.702c-45.267 0-81.963 36.696-81.963 81.965zM143.411 693.231h532.72v20.497c0 33.951-27.525 61.474-61.473 61.474h-389.284c-45.267 0-81.963-36.696-81.963-81.963v-0.009zM614.654 406.393c-11.309 0-20.48-9.171-20.48-20.48 0-11.313 9.171-20.48 20.48-20.48h81.957c11.309 0 20.48 9.167 20.48 20.48 0 11.309-9.171 20.48-20.48 20.48h-81.957z" />
<glyph unicode="&#xe906;" glyph-name="money" d="M106.667 647.125c0 35.365 28.635 64 64 64h682.667c35.366 0 64-28.635 64-64v-398.208c0-35.379-28.651-64.043-64-64.043h-682.667c-35.365 0-64 28.634-64 64v398.25zM170.667 142.208h682.667c58.944 0 106.667 47.795 106.667 106.709v398.208c0 58.929-47.74 106.667-106.667 106.667h-682.667c-58.929 0-106.667-47.738-106.667-106.667v-398.25c0-58.931 47.738-106.667 106.667-106.667zM451.661 508.339c33.327 33.327 87.356 33.327 120.678 0l0.009-0.004c33.318-33.327 33.314-87.351-0.009-120.674s-87.351-33.323-120.678 0c-33.324 33.327-33.324 87.356 0 120.678zM421.492 538.511c49.987 49.987 131.033 49.987 181.021 0 49.984-49.986 49.984-131.031 0-181.020-49.988-49.988-131.034-49.988-181.021 0s-49.987 131.034 0 181.020zM810.667 384c11.78 0 21.333-9.553 21.333-21.333 0-58.927-47.74-106.667-106.667-106.667-11.78 0-21.333 9.553-21.333 21.333s9.553 21.333 21.333 21.333c35.366 0 64 28.634 64 64 0 11.78 9.553 21.333 21.333 21.333zM725.333 640c-11.78 0-21.333-9.551-21.333-21.333s9.553-21.333 21.333-21.333c35.366 0 64-28.635 64-64 0-11.78 9.553-21.333 21.333-21.333s21.333 9.553 21.333 21.333c0 58.929-47.74 106.667-106.667 106.667zM192 533.333c0 58.929 47.738 106.667 106.667 106.667 11.782 0 21.333-9.551 21.333-21.333s-9.551-21.333-21.333-21.333c-35.365 0-64-28.635-64-64 0-11.78-9.551-21.333-21.333-21.333s-21.333 9.553-21.333 21.333zM234.667 362.667c0 11.78-9.551 21.333-21.333 21.333s-21.333-9.553-21.333-21.333c0-58.927 47.738-106.667 106.667-106.667 11.782 0 21.333 9.553 21.333 21.333s-9.551 21.333-21.333 21.333c-35.365 0-64 28.634-64 64z" />
<glyph unicode="&#xe907;" glyph-name="grid" d="M163.891 857.549c-33.932 0-61.44-27.508-61.44-61.44v-204.92c0-33.932 27.508-61.441 61.44-61.441h204.92c33.932 0 61.441 27.509 61.441 61.441v204.92c0 33.932-27.509 61.44-61.441 61.44h-204.92zM143.411 796.109c0 11.311 9.169 20.48 20.48 20.48h204.92c11.311 0 20.48-9.169 20.48-20.48v-204.92c0-11.311-9.169-20.48-20.48-20.48h-204.92c-11.311 0-20.48 9.169-20.48 20.48v204.92zM614.638 857.549c-33.931 0-61.44-27.508-61.44-61.44v-204.92c0-33.932 27.509-61.441 61.44-61.441h204.919c33.935 0 61.44 27.509 61.44 61.441v204.92c0 33.932-27.505 61.44-61.44 61.44h-204.919zM594.158 796.109c0 11.311 9.171 20.48 20.48 20.48h204.919c11.313 0 20.48-9.169 20.48-20.48v-204.92c0-11.311-9.167-20.48-20.48-20.48h-204.919c-11.309 0-20.48 9.169-20.48 20.48v204.92zM102.451 345.362c0 33.931 27.508 61.44 61.44 61.44h204.92c33.932 0 61.441-27.509 61.441-61.44v-204.919c0-33.935-27.509-61.44-61.441-61.44h-204.92c-33.932 0-61.44 27.505-61.44 61.44v204.919zM163.891 365.842c-11.311 0-20.48-9.171-20.48-20.48v-204.919c0-11.313 9.169-20.48 20.48-20.48h204.92c11.311 0 20.48 9.167 20.48 20.48v204.919c0 11.309-9.169 20.48-20.48 20.48h-204.92zM614.638 406.802c-33.931 0-61.44-27.509-61.44-61.44v-204.919c0-33.935 27.509-61.44 61.44-61.44h204.919c33.935 0 61.44 27.505 61.44 61.44v204.919c0 33.931-27.505 61.44-61.44 61.44h-204.919zM594.158 345.362c0 11.309 9.171 20.48 20.48 20.48h204.919c11.313 0 20.48-9.171 20.48-20.48v-204.919c0-11.313-9.167-20.48-20.48-20.48h-204.919c-11.309 0-20.48 9.167-20.48 20.48v204.919z" />
<glyph unicode="&#xe908;" glyph-name="trash" d="M426.667 853.333h170.667c11.78 0 21.333-9.551 21.333-21.333s-9.553-21.333-21.333-21.333h-170.667c-11.782 0-21.333 9.551-21.333 21.333s9.551 21.333 21.333 21.333zM170.667 704c0-11.782 9.551-21.333 21.333-21.333h42.667v-522.667c0-64.58 51.471-117.333 116.523-117.333h320c64.533 0 118.144 52.279 118.144 117.333v522.667h42.667c11.78 0 21.333 9.551 21.333 21.333s-9.553 21.333-21.333 21.333h-640c-11.782 0-21.333-9.551-21.333-21.333zM277.333 160v522.667h469.333v-522.667c0-41.015-34.027-74.667-75.477-74.667h-320c-41.017 0-73.856 33.178-73.856 74.667zM597.333 554.667c-11.78 0-21.333-9.551-21.333-21.333v-298.667c0-11.78 9.553-21.333 21.333-21.333s21.333 9.553 21.333 21.333v298.667c0 11.782-9.553 21.333-21.333 21.333zM448 533.333v-298.667c0-11.78-9.553-21.333-21.333-21.333-11.782 0-21.333 9.553-21.333 21.333v298.667c0 11.782 9.551 21.333 21.333 21.333 11.78 0 21.333-9.551 21.333-21.333z" />
<glyph unicode="&#xe90a;" glyph-name="back" d="M448 721.877c0 18.184-21.265 28.027-35.13 16.251l-0.004-0.004-257.306-218.389c-9.81-8.299-10.085-23.364-0.519-32.034h0.002l257.268-233.207c13.742-12.437 35.689-2.667 35.689 15.799v130.901c0 11.78 9.553 21.333 21.333 21.333 160.875 0 311.731-43.226 404.471-161.195-6.588 100.907-50.59 181.551-117.547 238.451-73.092 62.121-174.626 96.781-286.925 96.781-11.78 0-21.333 9.551-21.333 21.333v103.979zM385.252 770.65c41.602 35.328 105.414 5.747 105.414-48.773v-83.035c112.576-4.133 216.102-41.006 293.222-106.541 82.308-69.948 133.444-171.703 133.444-297.634v-48.171c0-9.89-6.797-18.483-16.422-20.762-9.621-2.274-19.55 2.359-23.983 11.2-70.639 140.894-215.151 198.327-386.261 202.658v-109.299c0-55.518-65.86-84.659-106.988-47.433l-0.012 0.009-257.278 233.216c0 0-0.001 0-0.002 0-28.656 25.971-27.913 71.223 1.595 96.206 0.007 0.006 0.014 0.012 0.020 0.017l257.249 218.342z" />
<glyph unicode="&#xe90c;" glyph-name="at-sign" d="M106.667 448c0 223.878 181.455 405.333 405.333 405.333 223.876 0 405.333-181.455 405.333-405.333v-64c0-70.703-57.297-128-128-128-54.652 0-101.291 34.231-119.654 82.428-34.684-49.822-92.378-82.428-157.679-82.428-106.033 0-192 85.969-192 192 0 106.033 85.967 192 192 192 106.031 0 192-85.967 192-192v-64c0-47.142 38.191-85.333 85.333-85.333s85.333 38.191 85.333 85.333v64c0 200.314-162.351 362.667-362.667 362.667-200.314 0-362.667-162.353-362.667-362.667 0-200.316 162.353-362.667 362.667-362.667 46.31 0 93.363 8.785 138.778 27.601 24.401 10.116 47.044 22.831 68.049 37.444 9.673 6.729 22.967 4.339 29.696-5.333s4.339-22.967-5.333-29.696c-23.283-16.192-48.597-30.443-76.079-41.83v0c-50.756-21.035-103.373-30.852-155.11-30.852-223.878 0-405.333 181.457-405.333 405.333zM661.333 448c0 82.47-66.863 149.333-149.333 149.333s-149.333-66.863-149.333-149.333c0-82.47 66.863-149.333 149.333-149.333s149.333 66.863 149.333 149.333z" />
<glyph unicode="&#xe90d;" glyph-name="user-tick" d="M426.667 810.667c-82.475 0-149.333-66.859-149.333-149.333s66.859-149.333 149.333-149.333c82.475 0 149.333 66.859 149.333 149.333s-66.859 149.333-149.333 149.333zM234.667 661.333c0 106.039 85.961 192 192 192s192-85.961 192-192c0-106.039-85.961-192-192-192s-192 85.961-192 192zM894.033 548.422c8.333-8.329 8.333-21.839 0.004-30.171l-85.291-85.333c-8.329-8.333-21.833-8.337-30.165-0.009l-51.243 51.2c-8.337 8.329-8.341 21.837-0.013 30.17s21.837 8.341 30.17 0.013l36.156-36.126 70.208 70.249c8.333 8.333 21.837 8.337 30.174 0.007zM123.36 281.975c38.007 38.007 89.556 59.358 143.307 59.358h320c53.751 0 105.301-21.35 143.309-59.358s59.358-89.557 59.358-143.309v-32c0-11.78-9.553-21.333-21.333-21.333s-21.333 9.553-21.333 21.333v32c0 42.436-16.858 83.132-46.865 113.135-30.003 30.007-70.699 46.865-113.135 46.865h-320c-42.435 0-83.131-16.858-113.137-46.865-30.006-30.003-46.863-70.699-46.863-113.135v-32c0-11.78-9.551-21.333-21.333-21.333s-21.333 9.553-21.333 21.333v32c0 53.751 21.353 105.301 59.36 143.309z" />
<glyph unicode="&#xe90e;" glyph-name="play-fill" d="M896 448c0 212.096-171.904 384-384 384s-384-171.904-384-384c0-212.096 171.904-384 384-384s384 171.904 384 384zM466.799 573.533l165.632-97.961c20.949-12.373 20.949-42.709 0-55.083l-165.632-97.963c-21.333-12.629-48.299 2.773-48.299 27.563v195.881c0 24.789 26.966 40.192 48.299 27.563z" />
<glyph unicode="&#xe90f;" glyph-name="reading" d="M184.361 735.48h143.461c38.035 0 74.512-15.109 101.406-42.004 26.898-26.897 42.017-63.383 42.017-101.416v-472.911c-30.409 27.034-70.169 42.68-112.297 42.627-0.010 0-0.020 0-0.029 0h-174.558c-10.864 0-21.282 4.317-28.964 11.997s-11.997 18.1-11.997 28.963v491.783c0 10.864 4.315 21.282 11.997 28.964s18.1 11.997 28.964 11.997zM491.7 676.554c-8.655 16.783-19.911 32.287-33.509 45.884-34.574 34.577-81.471 54.001-130.369 54.001h-143.461c-21.727 0-42.564-8.631-57.927-23.994s-23.994-36.2-23.994-57.927v-491.783c0-21.725 8.631-42.562 23.994-57.926s36.2-23.994 57.927-23.994h174.616c48.447 0.070 92.763-27.283 114.418-70.619 3.465-6.943 10.559-11.325 18.317-11.325 7.762 0 14.852 4.383 18.321 11.325 21.656 43.336 65.97 70.689 114.418 70.619h174.813c45.167 0.111 81.723 36.753 81.723 81.92v491.783c0 21.727-8.63 42.564-23.994 57.927s-36.2 23.994-57.926 23.994h-143.462c-71.377 0-133.267-40.56-163.906-99.885zM512.205 592.060c0 79.207 64.201 143.42 143.401 143.42h143.462c10.863 0 21.279-4.315 28.963-11.997 7.68-7.682 11.997-18.1 11.997-28.964v-491.783c0-22.573-18.264-40.89-40.837-40.96-0.008 0-0.016 0-0.029 0l0.053-20.48v20.48h-174.707c-0.008 0-0.020 0-0.029 0-42.119 0.053-81.871-15.585-112.275-42.607v472.891zM225.4 571.551c0-11.311 9.169-20.48 20.48-20.48h122.931c11.311 0 20.48 9.169 20.48 20.48s-9.169 20.48-20.48 20.48h-122.931c-11.311 0-20.48-9.169-20.48-20.48zM594.162 571.551c0-11.311 9.167-20.48 20.48-20.48h122.929c11.313 0 20.48 9.169 20.48 20.48s-9.167 20.48-20.48 20.48h-122.929c-11.313 0-20.48-9.169-20.48-20.48zM225.4 428.13c0-11.309 9.169-20.48 20.48-20.48h122.931c11.311 0 20.48 9.171 20.48 20.48 0 11.313-9.169 20.48-20.48 20.48h-122.931c-11.311 0-20.48-9.167-20.48-20.48zM594.162 428.13c0-11.309 9.167-20.48 20.48-20.48h122.929c11.313 0 20.48 9.171 20.48 20.48 0 11.313-9.167 20.48-20.48 20.48h-122.929c-11.313 0-20.48-9.167-20.48-20.48zM225.4 284.713c0-11.313 9.169-20.48 20.48-20.48h122.931c11.311 0 20.48 9.167 20.48 20.48 0 11.309-9.169 20.48-20.48 20.48h-122.931c-11.311 0-20.48-9.171-20.48-20.48zM594.162 284.713c0-11.313 9.167-20.48 20.48-20.48h122.929c11.313 0 20.48 9.167 20.48 20.48 0 11.309-9.167 20.48-20.48 20.48h-122.929c-11.313 0-20.48-9.171-20.48-20.48z" />
<glyph unicode="&#xe910;" glyph-name="link" d="M511.289 743.23c82.013 79.992 213.1 79.175 294.108-1.833s81.824-212.094 1.834-294.108l-93.615-93.615c-5.882-5.882-15.417-5.882-21.299 0-5.879 5.879-5.879 15.414 0 21.296l93.416 93.413c68.415 70.213 67.695 182.389-1.632 251.717-69.328 69.329-181.501 70.049-251.717 1.634l-93.413-93.414c-5.882-5.882-15.417-5.882-21.296 0-5.882 5.879-5.882 15.414 0 21.296l93.615 93.613zM636.44 572.44c5.882-5.882 5.882-15.417 0-21.296l-227.584-227.584c-5.879-5.882-15.414-5.882-21.296 0-5.879 5.879-5.879 15.414 0 21.296l227.584 227.584c5.882 5.879 15.417 5.879 21.296 0zM331.68 521.029c5.882 5.882 5.882 15.417 0 21.296-5.879 5.882-15.414 5.882-21.296 0l-93.613-93.615c-79.992-82.013-79.175-213.1 1.833-294.108s212.094-81.824 294.108-1.834v0l93.615 93.615c5.882 5.882 5.882 15.417 0 21.299-5.879 5.879-15.414 5.879-21.296 0l-93.413-93.416c-70.213-68.415-182.389-67.695-251.717 1.632s-70.049 181.501-1.634 251.717l93.414 93.413z" />
<glyph unicode="&#xe911;" glyph-name="Instagram" d="M319.828 816.941c-97.664 0-176.77-79.144-176.77-176.77v-384.343c0-97.662 79.144-176.77 176.77-176.77h384.343c97.666 0 176.77 79.146 176.77 176.727v384.386c0 97.666-79.146 176.77-176.727 176.77h-384.386zM112.941 640.172c0 114.255 92.585 206.887 206.887 206.887h384.386c114.215 0 206.845-92.587 206.845-206.887v-384.386c0-114.215-92.588-206.845-206.887-206.845h-384.343c-114.255 0-206.887 92.585-206.887 206.887v384.343zM723.086 688.646l0.081 0.001c16.221 0 29.566-13.129 29.479-29.561l-15.059 0.081h15.059c0-0.027 0-0.054 0-0.081-0.042-16.215-13.213-29.356-29.437-29.356-16.194 0-29.479 13.125-29.479 29.436 0 16.268 13.182 29.393 29.356 29.48zM723.167 659.845c-0.066-0.005-0.151-0.023-0.232-0.058-0.093-0.039-0.16-0.088-0.208-0.137-0.051-0.049-0.099-0.116-0.139-0.208-0.027-0.068-0.045-0.136-0.054-0.195-0.003-0.016-0.003-0.032-0.006-0.046 0.003-0.012 0.003-0.023 0.003-0.034 0.039-0.421 0.386-0.638 0.635-0.638v1.316zM723.239 659.845c0.066-0.004 0.148-0.021 0.226-0.055 0.081-0.034 0.142-0.077 0.184-0.12s0.090-0.107 0.133-0.202c0.033-0.077 0.051-0.158 0.060-0.229 0.003-0.026 0.006-0.051 0.006-0.073 0-0.071-0.018-0.173-0.060-0.273-0.039-0.088-0.084-0.151-0.126-0.194s-0.099-0.084-0.178-0.117c-0.090-0.039-0.178-0.054-0.235-0.054l-0.009 1.317zM609.961 545.967c-54.106 54.103-141.824 54.103-195.927 0s-54.103-141.821 0-195.927c54.103-54.103 141.821-54.103 195.927 0 54.103 54.106 54.103 141.824 0 195.927zM392.737 567.263c65.864 65.867 172.652 65.867 238.52 0 65.864-65.864 65.864-172.652 0-238.52-65.867-65.864-172.655-65.864-238.52 0-65.867 65.867-65.867 172.655 0 238.52z" />
<glyph unicode="&#xe912;" glyph-name="twitter" d="M791.103 688.941h97.367c5.367 0 10.33-2.858 13.026-7.5 2.693-4.643 2.714-10.369 0.048-15.030l-57.657-100.901c13.878-102.743-21.019-325.265-264.918-447.214-124.389-62.196-229.484-54.868-310.241-19.125-80.041 35.427-135.018 98.223-161.422 145.751-2.128 3.831-2.482 8.397-0.969 12.511s4.742 7.364 8.846 8.903l99.901 37.46c-75.186 88.477-96.004 180.209-90.055 260.144 6.277 84.35 42.273 154.94 74.035 194.643 3.62 4.526 9.517 6.572 15.163 5.262s10.039-5.744 11.296-11.402c10.837-48.764 47.329-87.326 91.070-116.042 36.222-23.781 76.008-39.852 106.318-48.733 6.659 53.757 41.367 141.397 144.562 175.795 111.61 37.203 192.503-30.608 223.63-74.521zM770.289 665.901c-23.239 37.184-94.256 102.001-193.292 68.989-100.123-33.375-125.232-125.125-125.232-166.42 0-4.59-2.093-8.927-5.683-11.785-3.593-2.858-8.291-3.921-12.761-2.888-34.069 7.861-86.23 26.552-133.256 57.425-38.65 25.374-75.232 59.929-94.304 104.731-23.491-37.359-46.042-91.705-50.697-154.247-5.724-76.917 15.534-166.858 96.886-254.018 3.431-3.677 4.8-8.821 3.651-13.719-1.149-4.894-4.665-8.894-9.373-10.659l-103.5-38.813c26.401-40.502 73.4-89.109 138.19-117.787 72.343-32.021 168.030-39.752 284.583 18.522 233.692 116.847 262.159 330.336 247.859 420.888-0.533 3.382 0.102 6.846 1.801 9.821l47.36 82.881h-79.462c-5.192 0-10.017 2.675-12.77 7.078z" />
<glyph unicode="&#xe914;" glyph-name="dash" horiz-adv-x="983" d="M184.32 468.070c0 11.309 9.169 20.48 20.48 20.48h573.44c11.309 0 20.48-9.171 20.48-20.48 0-11.313-9.171-20.48-20.48-20.48h-573.44c-11.311 0-20.48 9.167-20.48 20.48z" />
<glyph unicode="&#xe915;" glyph-name="plus" horiz-adv-x="983" d="M510.48 777.11c11.309 0 20.48-9.169 20.48-20.48v-573.44c0-11.309-9.171-20.48-20.48-20.48-11.313 0-20.48 9.171-20.48 20.48v573.44c0 11.311 9.167 20.48 20.48 20.48zM203.28 469.91c0 11.313 9.169 20.48 20.48 20.48h573.44c11.309 0 20.48-9.167 20.48-20.48 0-11.309-9.171-20.48-20.48-20.48h-573.44c-11.311 0-20.48 9.171-20.48 20.48z" />
<glyph unicode="&#xe917;" glyph-name="play" horiz-adv-x="983" d="M266.24 695.264c0 63.377 70.482 100.589 123.852 67.869l370.376-227.212c0 0.004 0 0 0 0 50.995-31.265 51.032-104.468-0.074-135.688-0.004-0.004 0.008 0.004 0 0l-370.284-227.189c-53.409-32.821-123.87 4.514-123.87 67.854v454.366zM368.678 728.216c-27.261 16.708-61.478-2.968-61.478-32.952v-454.366c0-30.020 34.242-49.684 61.465-32.956l370.369 227.238c24.949 15.237 24.977 50.524 0.025 65.823l-370.38 227.213c0.002-0.001-0.002 0.001 0 0z" />
<glyph unicode="&#xe919;" glyph-name="headphone" d="M225.159 777.187c76.075 76.075 179.255 118.813 286.841 118.813 107.588 0 210.765-42.738 286.839-118.813 76.079-76.075 118.814-179.255 118.814-286.84v-35.098c18.842-14.217 32.533-34.385 38.707-57.421 7.305-27.273 3.482-56.329-10.637-80.777l-127.676-221.146c-29.397-50.914-94.502-68.361-145.417-38.963-24.081 13.901-35.686 41.114-30.895 66.978l-12.937 7.471c-24.247 13.999-41.941 37.060-49.19 64.102-7.245 27.046-3.452 55.863 10.547 80.111l85.999 148.954c13.999 24.247 37.060 41.941 64.102 49.19 27.046 7.245 55.863 3.452 80.111-10.547l12.941-7.471c11.674 9.971 26.539 15.33 41.677 15.305v19.311c0 96.269-38.242 188.596-106.317 256.67-68.070 68.073-160.401 106.316-256.67 106.316-96.271 0-188.598-38.243-256.671-106.317s-106.316-160.401-106.316-256.67v-19.311c15.141 0.026 30.004-5.333 41.679-15.305l12.939 7.471c24.248 13.999 53.065 17.792 80.11 10.547 27.046-7.249 50.105-24.943 64.104-49.19l85.999-148.954c13.999-24.247 17.792-53.065 10.547-80.111-7.249-27.042-24.941-50.103-49.189-64.102l-12.94-7.471c4.794-25.865-6.812-53.077-30.893-66.978-24.45-14.118-53.507-17.941-80.777-10.637-27.271 7.309-50.522 25.152-64.638 49.6l-127.678 221.146c-14.117 24.448-17.942 53.504-10.635 80.777 6.173 23.040 19.863 43.204 38.705 57.421v35.098c0 107.585 42.738 210.765 118.813 286.84zM364.088 162.697l9.78 5.649c14.448 8.341 24.991 22.080 29.309 38.195 4.318 16.111 2.057 33.284-6.284 47.731l-85.999 148.954c-8.342 14.451-22.081 24.99-38.196 29.312-16.115 4.318-33.285 2.057-47.733-6.285v-0.004l-9.78-5.645 148.904-257.907zM808.815 420.604l-9.779 5.649c-14.447 8.341-31.62 10.603-47.731 6.285-16.115-4.322-29.858-14.861-38.199-29.312l-85.999-148.954c-8.341-14.447-10.603-31.62-6.285-47.731 4.318-16.115 14.861-29.854 29.312-38.195l9.779-5.649 148.902 257.907zM885.427 425.515c-10.15 5.862-23.134 2.385-28.992-7.77l-170.24-294.857c-5.862-10.155-2.381-23.134 7.77-28.996 30.507-17.613 69.517-7.159 87.13 23.347l127.68 221.146c8.457 14.647 10.752 32.060 6.37 48.401-4.378 16.337-15.066 30.272-29.717 38.729zM167.567 417.745c-5.862 10.155-18.842 13.632-28.994 7.77-14.652-8.461-25.341-22.387-29.719-38.729s-2.086-33.754 6.372-48.401l127.678-221.146c8.459-14.652 22.39-25.34 38.731-29.717 16.34-4.382 33.751-2.086 48.401 6.37v0c10.152 5.862 13.631 18.842 7.769 28.996l-170.238 294.857z" />
<glyph unicode="&#xe91a;" glyph-name="forward" horiz-adv-x="983" d="M280.721 686.941c-7.998 7.998-20.965 7.998-28.963 0s-7.998-20.965 0-28.963l190.319-190.318-190.319-190.321c-7.998-7.995-7.998-20.963 0-28.963 7.998-7.995 20.965-7.995 28.963 0l204.802 204.8c7.995 7.999 7.995 20.967 0 28.963l-204.802 204.801zM567.443 645.981c-7.999 7.998-20.967 7.998-28.967 0-7.995-7.998-7.995-20.965 0-28.963l149.361-149.358-149.361-149.361c-7.995-7.995-7.995-20.963 0-28.963 7.999-7.995 20.967-7.995 28.967 0l163.84 163.84c7.995 7.999 7.995 20.967 0 28.963l-163.84 163.841z" />
<glyph unicode="&#xe91b;" glyph-name="backward" horiz-adv-x="983" d="M702.317 686.941c7.999 7.998 20.967 7.998 28.967 0 7.995-7.998 7.995-20.965 0-28.963l-190.321-190.318 190.321-190.321c7.995-7.995 7.995-20.963 0-28.963-7.999-7.995-20.967-7.995-28.967 0l-204.8 204.8c-7.995 7.999-7.995 20.967 0 28.963l204.8 204.801zM415.597 645.981c7.999 7.998 20.967 7.998 28.967 0 7.995-7.998 7.995-20.965 0-28.963l-149.36-149.358 149.36-149.361c7.995-7.995 7.995-20.963 0-28.963-7.999-7.995-20.967-7.995-28.967 0l-163.838 163.84c-7.998 7.999-7.998 20.967 0 28.963l163.838 163.841z" />
<glyph unicode="&#xe920;" glyph-name="like" horiz-adv-x="983" d="M340.132 774.861c-115.762 0-196.772-109.668-196.772-215.245 0-52.253 20.515-103.342 53.138-151.405 32.603-48.034 76.537-91.89 121.335-129.2 44.72-37.245 89.736-67.498 123.986-88.437 17.113-10.457 31.445-18.538 41.603-23.953 3.15-1.679 5.861-3.084 8.098-4.211 2.236 1.126 4.948 2.531 8.098 4.211 10.158 5.415 24.49 13.496 41.603 23.953 34.251 20.939 79.266 51.192 123.986 88.437 44.798 37.31 88.732 81.166 121.336 129.2 32.621 48.062 53.137 99.152 53.137 151.405 0 105.577-81.011 215.245-196.772 215.245-66.679 0-110.252-32.997-135.819-62.91-3.891-4.552-9.581-7.173-15.569-7.173s-11.678 2.621-15.569 7.173c-25.567 29.913-69.141 62.91-135.819 62.91zM102.4 559.616c0 121.75 93.398 256.205 237.732 256.205 69.64 0 119.136-29.667 151.388-60.731 32.252 31.064 81.748 60.731 151.388 60.731 144.335 0 237.732-134.454 237.732-256.205 0-63.111-24.74-122.155-60.207-174.408-35.488-52.281-82.477-98.914-129.012-137.671-46.617-38.822-93.348-70.214-128.836-91.91-17.76-10.854-32.793-19.333-43.696-25.149-5.435-2.9-9.945-5.19-13.316-6.799-1.655-0.791-3.219-1.507-4.567-2.064-0.647-0.27-1.499-0.61-2.417-0.918-0.455-0.152-1.159-0.377-2.011-0.582-0.541-0.131-2.519-0.614-5.059-0.614-2.531 0-4.502 0.479-5.050 0.614h-0.008c-0.852 0.205-1.556 0.43-2.011 0.582-0.918 0.307-1.769 0.647-2.417 0.918-1.348 0.557-2.912 1.274-4.567 2.064-3.371 1.61-7.881 3.899-13.316 6.799-10.904 5.816-25.936 14.295-43.696 25.149-35.486 21.697-82.218 53.088-128.834 91.91-46.537 38.756-93.527 85.389-129.013 137.671-35.467 52.253-60.208 111.297-60.208 174.408z" />
<glyph unicode="&#xe921;" glyph-name="instagram" d="M319.828 809.412c-93.505 0-169.24-75.771-169.24-169.24v-384.343c0-93.503 75.771-169.24 169.24-169.24h384.343c93.509 0 169.24 75.776 169.24 169.198v384.386c0 93.508-75.776 169.24-169.198 169.24h-384.386zM319.828 854.588h384.386c118.374 0 214.374-95.958 214.374-214.417v-384.386c0-118.374-95.958-214.374-214.417-214.374h-384.343c-118.412 0-214.417 95.955-214.417 214.417v384.343c0 118.412 95.955 214.417 214.417 214.417zM723.098 696.167l-0.105-0.001c-20.272-0.132-36.801-16.589-36.801-37.009 0-20.497 16.685-36.966 37.009-36.966 20.411 0 36.966 16.556 36.966 36.966l-19.637-0.016c-1.774 3.768-3.572 7.586-6.939 14.741-5.725 12.155-3.117 6.619-10.391 22.284 20.323-0.023 37.078-16.486 36.966-37.13l-19.637 0.105zM723.098 696.167h0.102zM604.639 540.639c51.164-51.164 51.164-134.114 0-185.278-51.161-51.164-134.114-51.164-185.278 0s-51.164 134.114 0 185.278c51.164 51.164 134.117 51.164 185.278 0zM636.585 572.585c-68.807 68.804-180.363 68.804-249.166 0-68.807-68.807-68.807-180.363 0-249.169 68.804-68.807 180.36-68.807 249.166 0s68.807 180.363 0 249.169z" />
<glyph unicode="&#xe924;" glyph-name="comment" d="M518.228 839.529c-217.561 0-394.548-176.88-394.6-394.37v0c-0.084-66.021 16.432-130.973 47.977-188.88l-50.332-183.751c-2.132-7.782 0.051-16.113 5.727-21.85 5.676-5.74 13.982-8.014 21.789-5.966l188.692 49.48c55.817-28.735 117.7-43.776 180.576-43.776h0.172c217.486 0 394.466 176.935 394.556 394.418 0.045 105.324-40.993 204.466-115.45 279.013l-0.006 0.005c-74.463 74.51-173.604 115.632-279.091 115.677h-0.009zM168.805 445.139c0.040 192.53 156.785 349.209 349.411 349.214h0.012c93.506-0.042 181.155-36.404 247.148-102.435 65.997-66.079 102.27-153.733 102.231-247.062-0.081-192.545-156.841-349.262-349.38-349.262h-0.172c-58.344 0-115.733 14.625-166.996 42.523-5.051 2.747-10.963 3.467-16.526 2.009l-159.351-41.788 42.44 154.94c1.593 5.816 0.795 12.026-2.218 17.251-30.613 53.091-46.681 113.318-46.601 174.586v0.024zM473.492 364.794c-58.208 45.3-109.993 108.059-120.552 184.398 0.256 11.493 8.075 26.449 20.043 39.141 5.921 6.277 12.433 11.529 18.679 15.143 6.403 3.704 11.689 5.204 15.363 5.204 3.045 0 8.078-1.157 14.694-4.147 6.406-2.894 13.484-7.141 20.378-12.36 13.905-10.529 25.669-23.938 30.274-36.382-0.033-0.268-0.205-1.271-1.334-3.298-1.675-3.003-4.647-6.758-8.791-11.053-8.228-8.532-19.57-17.667-29.533-25.070-3.614-2.683-4.981-7.201-3.397-11.231 7.641-19.441 24.51-49.522 50.613-77.905 26.127-28.407 62.042-55.694 107.912-68.43 4.226-1.172 8.8 0.148 11.556 3.337 2.403 2.78 4.665 5.527 6.876 8.21l0.006 0.006c5.099 6.189 9.924 12.047 15.553 17.2 7.737 7.081 15.065 10.872 23.212 10.872 2.412 0 6.668-1.187 12.677-4.578 5.734-3.235 11.942-7.828 17.95-13.014 12.309-10.622 22.037-22.173 24.609-26.934 0.937-1.735 1.696-6.921-0.638-15.426-2.187-7.96-6.653-17.116-13.285-25.486-13.219-16.682-33.867-29.039-61.172-24.829-29.925 4.614-93.097 31.036-151.691 76.631zM407.025 628.706c-9.303 0-18.628-3.503-26.829-8.249-8.358-4.834-16.453-11.469-23.516-18.959-13.794-14.625-25.386-34.418-25.386-52.887 0-0.416 0.027-0.831 0.084-1.244 11.285-83.552 67.56-150.718 128.19-197.9 60.416-47.014 127.066-75.659 162.057-81.056 37.608-5.801 65.644 11.875 82.179 32.738 8.24 10.403 13.92 21.896 16.806 32.395 2.735 9.957 3.494 21.037-0.979 29.317-4.271 7.906-16.179 21.381-29.208 32.623-6.659 5.746-14.044 11.294-21.441 15.465-7.12 4.018-15.535 7.505-23.941 7.505-16.333 0-28.841-7.888-38.427-16.661-6.773-6.198-13.086-13.86-18.528-20.462v0l-1.030-1.25c-37.439 12.041-67.701 35.174-90.648 60.13-21.501 23.38-36.162 47.905-43.981 65.217 8.806 6.804 18.366 14.8 25.961 22.679 4.68 4.852 8.999 10.050 11.872 15.197 2.69 4.816 5.24 11.598 2.762 18.483-6.304 17.498-21.501 33.979-37.222 45.881-7.981 6.045-16.456 11.183-24.585 14.86-7.924 3.581-16.414 6.177-24.19 6.177z" />
<glyph unicode="&#xe925;" glyph-name="telegram" d="M812.984 691.202l-616.364-251.578c-6.221-2.539-6.253-11.336-0.050-13.92l108.453-45.189c11.258 2.247 22.603-4.376 26.010-15.592l41.924-138.020 26.446-57.748 69.921 68.027-47.36 35.521c-26.341 19.754-28.32 58.558-4.123 80.893l169.192 156.178c9.168 8.46 23.459 7.891 31.919-1.277 8.463-9.168 7.891-23.459-1.277-31.919l-169.192-156.178c-3.458-3.189-3.174-8.734 0.587-11.556l235.303-176.477c4.352-3.262 10.619-0.979 11.851 4.319l126.94 545.84c1.385 5.951-4.521 10.985-10.18 8.677zM319.274 344.118h-0.003c0 0 0 0 0.003 0zM292.342 336.857l-113.148 47.146c-43.416 18.089-43.192 79.673 0.354 97.449l616.365 251.577c39.596 16.162 80.941-19.080 71.252-60.736l-126.94-545.841c-8.623-37.078-52.504-53.067-82.959-30.226l-151.359 113.519-75.017-72.981c-27.386-26.624-73.27-14.857-84.378 21.757v0l-54.17 178.336zM372.971 226.858l16.773-55.224c1.265-4.171 6.49-5.551 9.653-2.485l-26.425 57.708z" />
<glyph unicode="&#xe926;" glyph-name="check" d="M160 448c0 194.423 157.577 352 352 352 56.738 0 110.204-13.772 157.824-37.719 15.791-7.94 35.029-1.577 42.965 14.212 7.94 15.789 1.579 35.025-14.208 42.965-56.060 28.191-119.33 44.542-186.581 44.542-229.769 0-416-186.231-416-416s186.231-416 416-416c229.769 0 416 186.231 416 416 0 17.673-14.327 32-32 32s-32-14.327-32-32c0-194.423-157.577-352-352-352s-352 157.577-352 352zM857.229 619.762c12.497 12.497 12.497 32.758 0 45.255s-32.755 12.497-45.252 0l-299.759-299.76-138.526 138.564c-12.495 12.497-32.756 12.501-45.255 0.004s-12.501-32.755-0.006-45.257l161.152-161.195c5.999-5.999 14.14-9.374 22.63-9.374 8.486 0 16.627 3.371 22.626 9.374l322.389 322.388z" />
<glyph unicode="&#xe927;" glyph-name="close" d="M755.503 691.503c16.661-16.663 16.661-43.677 0-60.34l-426.666-426.666c-16.663-16.661-43.677-16.661-60.34 0s-16.662 43.678 0 60.339l426.667 426.667c16.661 16.662 43.678 16.662 60.339 0zM268.497 691.503c16.663 16.662 43.677 16.662 60.34 0l426.666-426.667c16.661-16.661 16.661-43.678 0-60.339s-43.678-16.661-60.339 0l-426.667 426.666c-16.662 16.663-16.662 43.677 0 60.34z" />
<glyph unicode="&#xe928;" glyph-name="loading" d="M512 864c-42.159 0-82.799-6.382-121.094-18.023-16.909-5.14-26.45-23.014-21.31-39.924s23.014-26.45 39.924-21.31c32.447 9.863 66.815 15.257 102.48 15.257 73.289 0 141.248-22.398 197.598-60.722 14.613-9.939 34.517-6.149 44.459 8.465 9.937 14.614 6.148 34.517-8.465 44.456-66.615 45.303-147.051 71.801-233.591 71.801zM295.782 766.778c11.107-13.747 8.967-33.895-4.78-45.002-50.063-40.448-88.565-94.5-110.525-156.465-5.903-16.658-24.193-25.376-40.851-19.473s-25.376 24.193-19.473 40.851c25.912 73.117 71.377 136.997 130.627 184.868 13.747 11.107 33.895 8.967 45.002-4.78zM199.383 223.164c13.441 11.477 33.64 9.882 45.114-3.558 17.969-21.052 38.485-39.859 61.073-56.213 14.316-10.364 17.519-30.37 7.155-44.685s-30.37-17.519-44.686-7.155c-26.564 19.23-50.848 41.468-72.218 66.496-11.475 13.444-9.881 33.643 3.561 45.116zM160 448c0 17.673-14.327 32-32 32s-32-14.327-32-32c0-48.862 8.815-95.394 24.151-138.684 5.901-16.661 24.19-25.382 40.849-19.482 16.659 5.905 25.379 24.192 19.478 40.849-13.079 36.924-20.478 76.237-20.478 117.316zM884.070 547.258c17.395 3.102 34.018-8.487 37.12-25.888 4.194-23.522 6.81-47.996 6.81-73.37 0-229.769-186.231-416-416-416-17.673 0-32 14.327-32 32s14.327 32 32 32c194.423 0 352 157.577 352 352 0 20.962-2.163 41.63-5.82 62.14-3.102 17.395 8.491 34.016 25.89 37.118z" />
<glyph unicode="&#xe929;" glyph-name="send" d="M181.073 781.569c-5.66-4.604-8.1-12.096-6.236-19.15l69.774-263.424h201.358c16.966 0 30.72-13.754 30.72-30.72s-13.754-30.72-30.72-30.72h-201.358l-69.774-263.422c-1.864-7.057 0.576-14.549 6.236-19.153 5.662-4.604 13.497-5.468 20.025-2.204l597.949 298.901c6.287 3.142 10.26 9.568 10.26 16.597s-3.973 13.455-10.26 16.601l-597.95 298.895c-6.528 3.265-14.363 2.403-20.025-2.203zM142.303 829.232c24.393 19.842 58.148 23.557 86.272 9.494l0.005-0.003 597.935-298.891c27.107-13.55 44.233-41.251 44.233-71.557s-17.125-58.012-44.237-71.557l-597.931-298.889c-28.125-14.066-61.882-10.355-86.277 9.49-24.395 19.841-34.904 52.138-26.86 82.538l0.002 0.004 73.744 278.413-73.746 278.419c-8.044 30.401 2.465 62.694 26.86 82.538z" />
<glyph unicode="&#xe92a;" glyph-name="login" d="M213.571 746.427c112.503 112.503 281.697 146.159 428.69 85.273s242.835-204.323 242.835-363.428c0-159.101-95.842-302.539-242.835-363.426-146.993-60.883-316.187-27.23-428.69 85.275l-0.028 0.029c-30.091 30.188-55.006 65.13-73.744 103.416-5.967 12.19-0.921 26.911 11.271 32.874 12.191 5.968 26.911 0.922 32.877-11.268 16.364-33.436 38.121-63.951 64.399-90.317 98.446-98.427 246.488-127.873 375.106-74.596 128.627 53.277 212.492 178.79 212.492 318.013 0 139.225-83.866 264.74-212.492 318.018-128.623 53.277-276.67 23.831-375.115-74.607-26.274-26.363-48.028-56.872-64.391-90.302-5.967-12.191-20.687-17.236-32.878-11.269s-17.236 20.687-11.27 32.878c18.739 38.284 43.653 73.222 73.744 103.411l0.028 0.028zM474.345 608.584c9.601 9.597 25.162 9.597 34.759 0l122.929-122.93c9.597-9.601 9.597-25.158 0-34.759l-122.929-122.929c-9.597-9.597-25.158-9.597-34.759 0-9.597 9.597-9.597 25.158 0 34.755l80.978 80.978h-350.439c-13.573 0-24.576 11.002-24.576 24.576s11.003 24.576 24.576 24.576h350.439l-80.978 80.978c-9.597 9.597-9.597 25.158 0 34.756z" />
<glyph unicode="&#xe92b;" glyph-name="filter" d="M213.333 821.333c-41.225 0-74.667-33.442-74.667-74.667v-110.336c0-19.727 7.805-38.781 21.901-52.82l0.034-0.033 212.732-212.734v-253.367c0-55.497 52.148-96.252 106.014-82.803l0.009 0.004 106.667 26.667c37.956 9.489 64.644 43.614 64.644 82.799v226.701l212.791 212.794c14.025 14.024 21.875 33.001 21.875 52.793v110.336c0 41.225-33.442 74.667-74.667 74.667h-597.333zM595.831 406.417c-2.965-3.017-5.21-6.481-6.737-10.167-1.566-3.772-2.428-7.91-2.428-12.25v-239.957c0-9.796-6.677-18.338-16.166-20.71l-106.658-26.662c-13.461-3.362-26.509 6.827-26.509 20.706v266.624c0 4.339-0.862 8.478-2.428 12.25-1.549 3.746-3.844 7.258-6.878 10.308-0.021 0.026-0.043 0.047-0.068 0.068zM427.947 406.639l-222.212 222.214c-1.926 1.916-3.068 4.606-3.068 7.478v110.336c0 5.879 4.788 10.667 10.667 10.667h597.333c5.879 0 10.667-4.788 10.667-10.667v-110.336c0-2.822-1.109-5.519-3.127-7.538l-222.165-222.167z" />
<glyph unicode="&#xe92c;" glyph-name="menu" d="M96.053 703.893c0 17.673 14.327 32 32 32h768.322c17.673 0 32-14.327 32-32s-14.327-32-32-32h-768.322c-17.673 0-32 14.327-32 32zM96.053 447.791c0 17.673 14.327 32 32 32h597.583c17.673 0 32-14.327 32-32 0-17.677-14.327-32-32-32h-597.583c-17.673 0-32 14.323-32 32zM128.053 223.684c-17.673 0-32-14.327-32-32 0-17.677 14.327-32 32-32h426.844c17.673 0 32 14.323 32 32 0 17.673-14.327 32-32 32h-426.844z" />
<glyph unicode="&#xe92d;" glyph-name="category" d="M213.333 864c-41.237 0-74.667-33.429-74.667-74.667v-85.333c0-41.237 33.429-74.667 74.667-74.667h85.333c41.237 0 74.667 33.429 74.667 74.667v85.333c0 41.237-33.429 74.667-74.667 74.667h-85.333zM202.667 789.333c0 5.891 4.776 10.667 10.667 10.667h85.333c5.891 0 10.667-4.776 10.667-10.667v-85.333c0-5.891-4.776-10.667-10.667-10.667h-85.333c-5.891 0-10.667 4.776-10.667 10.667v85.333zM512 778.667c-17.673 0-32-14.327-32-32s14.327-32 32-32h341.333c17.673 0 32 14.327 32 32s-14.327 32-32 32h-341.333zM480 448c0 17.673 14.327 32 32 32h341.333c17.673 0 32-14.327 32-32s-14.327-32-32-32h-341.333c-17.673 0-32 14.327-32 32zM213.333 565.333c-41.237 0-74.667-33.429-74.667-74.667v-85.333c0-41.237 33.429-74.667 74.667-74.667h85.333c41.237 0 74.667 33.429 74.667 74.667v85.333c0 41.237-33.429 74.667-74.667 74.667h-85.333zM202.667 490.667c0 5.892 4.776 10.667 10.667 10.667h85.333c5.891 0 10.667-4.774 10.667-10.667v-85.333c0-5.892-4.776-10.667-10.667-10.667h-85.333c-5.891 0-10.667 4.774-10.667 10.667v85.333zM480 149.333c0 17.673 14.327 32 32 32h341.333c17.673 0 32-14.327 32-32s-14.327-32-32-32h-341.333c-17.673 0-32 14.327-32 32zM213.333 266.667c-41.237 0-74.667-33.429-74.667-74.667v-85.333c0-41.237 33.429-74.667 74.667-74.667h85.333c41.237 0 74.667 33.429 74.667 74.667v85.333c0 41.237-33.429 74.667-74.667 74.667h-85.333zM202.667 192c0 5.892 4.776 10.667 10.667 10.667h85.333c5.891 0 10.667-4.774 10.667-10.667v-85.333c0-5.892-4.776-10.667-10.667-10.667h-85.333c-5.891 0-10.667 4.774-10.667 10.667v85.333z" />
<glyph unicode="&#xe92e;" glyph-name="time" d="M499.968 651.305c17.673 0 32-14.327 32-32v-180.474l140.646-85.751c15.091-9.199 19.866-28.89 10.667-43.981-9.203-15.087-28.894-19.861-43.981-10.662l-155.989 95.104c-9.527 5.807-15.343 16.162-15.343 27.324v198.441c0 17.673 14.327 32 32 32zM512 800c-194.404 0-352-157.596-352-352 0-194.402 157.596-352 352-352 194.402 0 352 157.598 352 352 0 194.404-157.598 352-352 352zM96 448c0 229.751 186.249 416 416 416s416-186.249 416-416c0-229.751-186.249-416-416-416s-416 186.249-416 416z" />
<glyph unicode="&#xe92f;" glyph-name="write" d="M740.19 842.105c29.158 29.226 76.446 29.181 105.604 0.020l60.331-60.331c29.163-29.161 29.205-76.446-0.021-105.606 0-0.003 0.004 0.003 0 0l-451.588-451.587c-0.009-0.009 0.013 0.009 0 0-14.037-14.101-33.122-21.935-52.851-21.935h-102.997c-17.673 0-32 14.327-32 32v102.997c0 19.725 7.805 38.78 21.901 52.821 0.011 0.009 0.022 0.021 0.034 0.030l451.589 451.59c0 0.003-0.004-0.003 0 0zM800.542 796.871c-4.203 4.202-10.927 4.16-15.049 0.029l-451.759-451.756c-1.926-1.916-3.068-4.608-3.068-7.479v-70.997h70.997c2.871 0 5.562 1.143 7.478 3.068l451.731 451.73c4.13 4.121 4.203 10.874 0 15.076l-60.331 60.331zM663.881 765.453c12.497 12.497 32.755 12.497 45.252 0l120.32-120.32c12.497-12.497 12.497-32.758 0-45.255s-32.755-12.497-45.252 0l-120.32 120.32c-12.497 12.497-12.497 32.758 0 45.255zM213.333 800c-29.474 0-53.333-23.86-53.333-53.333v-597.333c0-29.474 23.86-53.333 53.333-53.333h597.333c29.474 0 53.333 23.859 53.333 53.333v341.333c0 17.673 14.327 32 32 32s32-14.327 32-32v-341.333c0-64.819-52.514-117.333-117.333-117.333h-597.333c-64.82 0-117.333 52.514-117.333 117.333v597.333c0 64.82 52.514 117.333 117.333 117.333h341.333c17.673 0 32-14.327 32-32s-14.327-32-32-32h-341.333z" />
<glyph unicode="&#xe930;" glyph-name="phone" d="M170.679 662.575c20.822-162.666 122.935-296.392 237.717-392.913 115.533-97.156 240.102-153.451 299.11-163.285 53.841-8.973 94.558 17.361 120.623 52.907 13.082 17.835 21.884 37.346 26.193 54.306 4.608 18.116 3.11 29.175 1.263 32.87-5.073 10.142-24.256 34.756-48.529 57.391-11.849 11.046-24.085 20.834-35.392 27.729-11.853 7.223-20.237 9.754-24.998 9.754-16.064 0-30.511-8.081-45.769-23.168-11.102-10.982-20.617-23.462-30.673-36.651-4.361-5.726-8.828-11.584-13.568-17.506-5.436-6.797-14.451-9.609-22.788-7.108-90.449 27.136-161.267 85.278-212.782 145.805-51.473 60.484-84.739 124.578-99.803 166.004-3.122 8.587-0.43 18.209 6.696 23.928 19.651 15.771 42.015 35.238 58.237 53.416 8.17 9.155 14.031 17.158 17.336 23.557 2.228 4.314 2.564 6.455 2.633 7.022-9.080 26.518-32.278 55.090-59.697 77.523-13.597 11.124-27.554 20.172-40.186 26.342-13.045 6.371-22.972 8.836-28.972 8.836-7.249 0-17.669-3.2-30.293-11.091-12.319-7.699-25.159-18.893-36.834-32.27-23.6-27.042-39.018-58.907-39.527-83.398zM224.427 814.424c16.176 10.11 34.556 17.576 52.907 17.576 15.334 0 32.073-5.535 47.695-13.164 16.034-7.831 32.744-18.783 48.48-31.658 31.002-25.366 60.97-60.483 73.394-97.765 4.89-14.668-0.141-29.121-5.44-39.383-5.666-10.97-14.182-22.043-23.412-32.385-14.981-16.786-33.83-33.825-51.194-48.322 15.417-36.889 44.326-89.147 86.724-138.961 45.252-53.175 104.926-102.473 178.748-128.128 0.67 0.879 1.348 1.766 2.031 2.667 10.731 14.067 23.181 30.391 36.535 43.601 18.901 18.692 43.567 35.499 75.772 35.499 16.572 0 33.165-7.433 47.206-15.991 14.583-8.887 29.15-20.706 42.283-32.951 25.69-23.957 49.169-52.672 57.591-69.517 8.819-17.638 7.322-41.246 1.929-62.464-5.687-22.37-16.887-46.861-33.139-69.026-32.602-44.454-87.885-82.121-162.044-69.76-68.992 11.499-200.422 72.538-319.556 172.715-119.554 100.535-230.518 243.648-252.772 421.682-0.11 0.878-0.165 1.762-0.165 2.646 0 39.352 22.861 81.529 50.060 112.694 13.926 15.956 29.885 30.096 46.366 40.396z" />
<glyph unicode="&#xe931;" glyph-name="arrow-down" d="M705.293 555.961c12.497-12.497 12.497-32.756 0-45.254l-170.667-170.667c-12.497-12.497-32.755-12.497-45.252 0l-170.668 170.667c-12.497 12.497-12.497 32.757 0 45.254s32.758 12.497 45.255 0l148.039-148.038 148.041 148.038c12.497 12.497 32.755 12.497 45.252 0z" />
<glyph unicode="&#xe932;" glyph-name="arrow-left" d="M619.959 641.294c-12.497 12.497-32.755 12.497-45.252 0l-170.668-170.668c-12.497-12.497-12.497-32.755 0-45.252l170.668-170.667c12.497-12.497 32.755-12.497 45.252 0s12.497 32.755 0 45.252l-148.036 148.041 148.036 148.039c12.497 12.497 12.497 32.758 0 45.255z" />
<glyph unicode="&#xe933;" glyph-name="arrow-top" d="M318.706 340.041c-12.497 12.497-12.497 32.755 0 45.252l170.668 170.668c12.497 12.497 32.755 12.497 45.252 0l170.667-170.668c12.497-12.497 12.497-32.755 0-45.252s-32.755-12.497-45.252 0l-148.041 148.036-148.039-148.036c-12.497-12.497-32.758-12.497-45.255 0z" />
<glyph unicode="&#xe934;" glyph-name="arrow-right" d="M404.039 641.294c12.497 12.497 32.756 12.497 45.254 0l170.667-170.668c12.497-12.497 12.497-32.755 0-45.252l-170.667-170.667c-12.497-12.497-32.757-12.497-45.254 0s-12.497 32.755 0 45.252l148.038 148.041-148.038 148.039c-12.497 12.497-12.497 32.758 0 45.255z" />
<glyph unicode="&#xe935;" glyph-name="arrow-top-right" d="M426.876 691.197c-16.492 0.116-29.958-13.161-30.074-29.655s13.161-29.961 29.655-30.077l225.183-1.588-371.959-371.962c-11.664-11.661-11.664-30.571 0-42.236s30.574-11.665 42.238 0l371.931 371.93 1.617-225.161c0.119-16.495 13.589-29.769 30.080-29.649 16.495 0.115 29.773 13.585 29.653 30.080l-2.133 296.576c-0.119 16.329-13.325 29.536-29.658 29.651l-296.533 2.091z" />
<glyph unicode="&#xe936;" glyph-name="arrow-down-right" d="M426.876 204.804c-16.492-0.119-29.958 13.158-30.074 29.653s13.161 29.961 29.655 30.076l225.183 1.587-371.959 371.962c-11.664 11.664-11.664 30.575 0 42.238s30.574 11.664 42.238 0l371.931-371.93 1.617 225.16c0.119 16.495 13.589 29.77 30.080 29.651 16.495-0.119 29.773-13.586 29.653-30.081l-2.133-296.576c-0.119-16.329-13.325-29.534-29.658-29.649l-296.533-2.091z" />
<glyph unicode="&#xe937;" glyph-name="arrow-long-left" d="M842.667 448c0-17.673-14.327-32-32-32h-597.333c-17.673 0-32 14.327-32 32s14.327 32 32 32h597.333c17.673 0 32-14.327 32-32zM190.706 425.374c-12.497 12.497-12.497 32.755 0 45.252l213.333 213.335c12.497 12.497 32.756 12.497 45.254 0s12.497-32.758 0-45.255l-213.332-213.332c-12.497-12.497-32.758-12.497-45.255 0zM449.293 212.041c-12.497-12.497-32.757-12.497-45.254 0l-213.333 213.333c-12.497 12.497-12.497 32.755 0 45.252s32.758 12.497 45.255 0l213.332-213.333c12.497-12.497 12.497-32.755 0-45.252z" />
<glyph unicode="&#xe938;" glyph-name="arrow-long-right" d="M619.959 212.041c-12.497-12.497-32.755-12.497-45.252 0s-12.497 32.755 0 45.252l158.703 158.707h-520.077c-17.673 0-32 14.327-32 32s14.327 32 32 32h520.077l-158.703 158.706c-12.497 12.497-12.497 32.758 0 45.255s32.755 12.497 45.252 0l213.333-213.335c3.145-3.14 5.495-6.771 7.057-10.65 1.412-3.494 2.223-7.3 2.308-11.281 0.009-0.265 0.009-0.529 0.009-0.789 0-0.166-0.004-0.333-0.004-0.495zM842.658 447.322c-0.081-4.062-0.926-7.94-2.389-11.494-1.562-3.802-3.887-7.364-6.976-10.453l-213.333-213.333z" />
<glyph unicode="&#xe93b;" glyph-name="search" d="M652.352 650.135c94.579-94.576 94.579-247.912 0-342.487-94.575-94.579-247.911-94.579-342.487 0-94.575 94.575-94.575 247.911 0 342.487s247.912 94.575 342.487 0zM688.559 686.339c-114.573 114.57-300.327 114.57-414.898 0s-114.57-300.325 0-414.897c114.571-114.569 300.325-114.569 414.898 0 114.569 114.573 114.569 300.327 0 414.897zM652.19 307.81c10.001 9.997 26.21 9.997 36.207 0l140.373-140.373c9.997-10.001 9.997-26.206 0-36.207-10.001-9.997-26.206-9.997-36.207 0l-140.373 140.373c-9.997 9.997-9.997 26.206 0 36.207z" />
</font>
</defs>
</svg>
